<svg width="24" height="24" viewBox="0 0 24 24" fill="none" xmlns="http://www.w3.org/2000/svg">
<mask id="mask0_4_115" style="mask-type:alpha" maskUnits="userSpaceOnUse" x="0" y="0" width="24" height="24">
<rect width="24" height="24" fill="#D9D9D9"/>
</mask>
<g mask="url(#mask0_4_115)">
<path d="M12 22C11.45 22 10.9792 21.8042 10.5875 21.4125C10.1959 21.0208 10 20.55 10 20H14C14 20.55 13.8042 21.0208 13.4125 21.4125C13.0209 21.8042 12.55 22 12 22ZM12 4C11.2667 4 10.5875 4.12917 9.96253 4.3875C9.33753 4.64583 8.78336 5 8.30002 5.45L6.85002 4.05C7.53336 3.41667 8.31253 2.91667 9.18753 2.55C10.0625 2.18333 11 2 12 2C14.0834 2 15.8542 2.72917 17.3125 4.1875C18.7709 5.64583 19.5 7.41667 19.5 9.5C19.5 10.6833 19.2917 11.6958 18.875 12.5375C18.4584 13.3792 17.9834 14.0667 17.45 14.6L16.05 13.2C16.4 12.8167 16.7292 12.325 17.0375 11.725C17.3459 11.125 17.5 10.3833 17.5 9.5C17.5 7.96667 16.9667 6.66667 15.9 5.6C14.8334 4.53333 13.5334 4 12 4ZM21.2 21.2L19.775 22.625L13.15 16H8.25002C7.10002 15.3167 6.18752 14.4 5.51252 13.25C4.83752 12.1 4.50002 10.85 4.50002 9.5C4.50002 9.16667 4.52086 8.84167 4.56252 8.525C4.60419 8.20833 4.66669 7.9 4.75002 7.6L1.40002 4.2L2.80002 2.8L21.2 21.2ZM8.85003 14H11.15L6.50002 9.35V9.5C6.50002 10.4 6.70419 11.2417 7.11252 12.025C7.52086 12.8083 8.10003 13.4667 8.85003 14ZM16.15 17V19H8.00002V17H16.15Z" fill="#FF0000"/>
</g>
</svg>
